<svg width="130" height="30" viewBox="0 0 130 30" fill="none" xmlns="http://www.w3.org/2000/svg">
<path d="M31.32 7.25H34.32V21.7H31.32V7.25Z" fill="black"/>
<path fill-rule="evenodd" clip-rule="evenodd" d="M39.2479 11.8968C37.2824 12.7076 36 14.6239 36 16.75C35.9811 18.1429 36.524 19.4847 37.5062 20.4725C38.4884 21.4603 39.827 22.0109 41.22 22C43.3461 22.0122 45.2696 20.7408 46.0917 18.78C46.9138 16.8192 46.472 14.5562 44.9729 13.0484C43.4738 11.5407 41.2134 11.086 39.2479 11.8968ZM41.201 14.5304C42.4521 14.5085 43.4871 15.4991 43.52 16.75H43.5C43.5335 17.3663 43.3089 17.9687 42.8801 18.4127C42.4513 18.8566 41.8571 19.102 41.24 19.09C39.9887 19.0896 38.9715 18.0807 38.9609 16.8295C38.9502 15.5782 39.9499 14.5522 41.201 14.5304Z" fill="black"/>
<path fill-rule="evenodd" clip-rule="evenodd" d="M58.31 21.21V11.8L55.42 11.86V12.86C54.7122 12.0018 53.6412 11.5274 52.53 11.58C49.7686 11.58 47.53 13.8186 47.53 16.58C47.53 19.3414 49.7686 21.58 52.53 21.58C53.6412 21.6325 54.7122 21.1582 55.42 20.3V21.21C55.4603 21.8053 55.2327 22.3875 54.7993 22.7976C54.366 23.2077 53.7722 23.403 53.18 23.33C52.2399 23.4242 51.3398 22.9264 50.92 22.08L48.39 23.54C49.3709 25.1655 51.1878 26.0953 53.08 25.94C55.71 25.94 58.31 24.53 58.31 21.21ZM54.0098 14.2627C54.9027 14.6659 55.4608 15.5712 55.42 16.55C55.4386 17.1832 55.1882 17.7947 54.7308 18.233C54.2735 18.6714 53.6519 18.8955 53.02 18.85C52.0404 18.8491 51.1596 18.253 50.7947 17.3438C50.4299 16.4347 50.6542 15.395 51.3615 14.7172C52.0688 14.0394 53.117 13.8595 54.0098 14.2627Z" fill="black"/>
<path fill-rule="evenodd" clip-rule="evenodd" d="M63.2432 11.8987C61.2802 12.7107 60 14.6257 60 16.75C59.9838 18.1456 60.5303 19.4888 61.5163 20.4767C62.5022 21.4645 63.8444 22.0136 65.24 22C67.3643 22.0041 69.2817 20.7275 70.0975 18.766C70.9132 16.8046 70.4665 14.5448 68.9658 13.0413C67.4651 11.5377 65.2062 11.0867 63.2432 11.8987ZM65.1977 14.5304C66.4501 14.5068 67.487 15.4979 67.52 16.75H67.51C67.5435 17.3663 67.3189 17.9687 66.8901 18.4127C66.4613 18.8566 65.8671 19.1021 65.25 19.09C63.9974 19.0951 62.9753 18.0887 62.9609 16.8362C62.9466 15.5837 63.9453 14.5541 65.1977 14.5304Z" fill="black"/>
<path fill-rule="evenodd" clip-rule="evenodd" d="M73.65 7.37C72.6669 7.37 71.87 8.16693 71.87 9.15C71.8808 10.1285 72.6714 10.9192 73.65 10.93C74.6331 10.93 75.43 10.1331 75.43 9.15C75.43 8.16693 74.6331 7.37 73.65 7.37ZM75.16 11.8H72.16V21.7H75.16V11.8Z" fill="black"/>
<path fill-rule="evenodd" clip-rule="evenodd" d="M86.7072 20.3673C87.6026 19.3818 88.0679 18.0798 88 16.75C88.0597 15.4252 87.5907 14.131 86.6961 13.1521C85.8016 12.1731 84.5548 11.5896 83.23 11.53C82.0992 11.4507 80.9942 11.8927 80.23 12.73V11.8H77.23V25.68H80.23V20.79C80.9931 21.6298 82.0978 22.0753 83.23 22C84.5602 21.9405 85.8118 21.3528 86.7072 20.3673ZM82.5977 14.4504C83.8943 14.4267 84.967 15.4536 85 16.75C85.0462 17.3926 84.816 18.0243 84.3672 18.4865C83.9184 18.9486 83.2937 19.1973 82.65 19.17C81.3532 19.1751 80.2953 18.1329 80.2809 16.8362C80.2665 15.5395 81.3011 14.4741 82.5977 14.4504Z" fill="black"/>
<path d="M97.13 18.73C97.13 21.01 95.13 21.98 93.01 21.98C91.2408 22.1392 89.5532 21.2043 88.75 19.62L91.33 18.16C91.5406 18.8954 92.2369 19.3832 93 19.33C93.71 19.33 94.07 19.11 94.07 18.71C94.07 17.62 89.2 18.2 89.2 14.77C89.2 12.61 91.02 11.53 93.08 11.53C94.6753 11.4586 96.181 12.269 97 13.64L94.42 15C94.1872 14.473 93.6662 14.1322 93.09 14.13C92.57 14.13 92.26 14.33 92.26 14.68C92.26 15.82 97.13 15.07 97.13 18.73Z" fill="black"/>
<path d="M108 11.8V21.7H105V20.77C104.309 21.6048 103.262 22.0614 102.18 22C100.18 22 98.47 20.57 98.47 17.9V11.8H101.47V17.45C101.422 17.928 101.587 18.403 101.919 18.7494C102.252 19.0957 102.72 19.2787 103.2 19.25C104.28 19.25 105.04 18.61 105.04 17.25V11.8H108Z" fill="black"/>
<path d="M125 15.62V21.7H122V15.88C122 14.88 121.53 14.26 120.58 14.26C119.63 14.26 119.03 14.95 119.03 16.12V21.7H116.03V15.88C116.03 14.88 115.56 14.26 114.61 14.26C113.66 14.26 113.06 14.95 113.06 16.12V21.7H110.06V11.8H113.06V12.71C113.691 11.8932 114.691 11.4496 115.72 11.53C116.752 11.4761 117.736 11.9701 118.31 12.83C118.98 11.9324 120.064 11.4416 121.18 11.53C123.52 11.53 125 13.15 125 15.62Z" fill="black"/>
<path d="M13.45 4.65002V0.400024H0.0499878V29.6H13.45V25.35C7.73384 25.35 3.09999 20.7162 3.09999 15C3.09999 9.28388 7.73384 4.65002 13.45 4.65002Z" fill="#3F0A3D"/>
<path d="M13.45 4.65002V25.35C19.1662 25.35 23.8 20.7162 23.8 15C23.8 9.28388 19.1662 4.65002 13.45 4.65002V4.65002Z" fill="#3F0A3D"/>
<path d="M127.52 11.74C128.735 11.74 129.72 10.7551 129.72 9.54003C129.72 8.325 128.735 7.34003 127.52 7.34003C126.305 7.34003 125.32 8.325 125.32 9.54003C125.32 10.7551 126.305 11.74 127.52 11.74Z" fill="#394149"/>
</svg>
